<svg width="720" height="520" viewBox="0 0 720 520" fill="none" xmlns="http://www.w3.org/2000/svg">
  <rect x="80" y="72" width="560" height="376" rx="28" fill="#F8FAFC" stroke="#D7E0EA" stroke-width="2"/>
  <rect x="112" y="112" width="496" height="64" rx="14" fill="#E0F2FE"/>
  <circle cx="144" cy="144" r="14" fill="#2563EB"/>
  <rect x="174" y="132" width="144" height="12" rx="6" fill="#1E3A8A"/>
  <rect x="174" y="154" width="92" height="10" rx="5" fill="#64748B"/>
  <rect x="112" y="210" width="148" height="92" rx="16" fill="#FFFFFF" stroke="#D7E0EA" stroke-width="2"/>
  <rect x="286" y="210" width="148" height="92" rx="16" fill="#FFFFFF" stroke="#D7E0EA" stroke-width="2"/>
  <rect x="460" y="210" width="148" height="92" rx="16" fill="#FFFFFF" stroke="#D7E0EA" stroke-width="2"/>
  <rect x="132" y="234" width="64" height="12" rx="6" fill="#2563EB"/>
  <rect x="132" y="258" width="96" height="10" rx="5" fill="#94A3B8"/>
  <rect x="306" y="234" width="76" height="12" rx="6" fill="#0F766E"/>
  <rect x="306" y="258" width="86" height="10" rx="5" fill="#94A3B8"/>
  <rect x="480" y="234" width="68" height="12" rx="6" fill="#7C3AED"/>
  <rect x="480" y="258" width="90" height="10" rx="5" fill="#94A3B8"/>
  <rect x="112" y="330" width="496" height="70" rx="16" fill="#FFFFFF" stroke="#D7E0EA" stroke-width="2"/>
  <path d="M144 365H274" stroke="#2563EB" stroke-width="10" stroke-linecap="round"/>
  <path d="M304 365H432" stroke="#0F766E" stroke-width="10" stroke-linecap="round"/>
  <path d="M462 365H558" stroke="#7C3AED" stroke-width="10" stroke-linecap="round"/>
  <circle cx="590" cy="96" r="42" fill="#DBEAFE"/>
  <path d="M572 96L586 110L612 82" stroke="#2563EB" stroke-width="9" stroke-linecap="round" stroke-linejoin="round"/>
</svg>
